<svg id="Calque_1" data-name="Calque 1" xmlns="http://www.w3.org/2000/svg" xmlns:xlink="http://www.w3.org/1999/xlink" viewBox="0 0 4358.51 760.73"><defs><style>.cls-1{fill:none;}.cls-2{clip-path:url(#clip-path);}.cls-3{fill:#e6e6e6;}.cls-4{fill:#f2f2f2;}</style><clipPath id="clip-path" transform="translate(167.03 194.26)"><rect class="cls-1" width="4000" height="1000"/></clipPath></defs><title>cloud</title><g class="cls-2"><path class="cls-3" d="M419.44,190.4c7.67,0,7.68-11.91,0-11.91s-7.67,11.91,0,11.91Z" transform="translate(167.03 194.26)"/><path class="cls-3" d="M410.56,389.7a134.37,134.37,0,0,0,68.8-15.38,133.86,133.86,0,0,0,57.48-36.92,133.85,133.85,0,0,0,36.93-57.48,134.49,134.49,0,0,0,15.38-68.81l-6.38-47.48a178.49,178.49,0,0,0-45.93-78.8L500.7,56.9a177.85,177.85,0,0,0-90.14-24.38A134.49,134.49,0,0,0,341.75,47.9a133.85,133.85,0,0,0-57.48,36.93,133.85,133.85,0,0,0-36.93,57.47A134.51,134.51,0,0,0,232,211.11l6.38,47.48a178.58,178.58,0,0,0,45.93,78.81l36.15,27.92a177.7,177.7,0,0,0,90.14,24.38Z" transform="translate(167.03 194.26)"/><path class="cls-3" d="M245,453a134.51,134.51,0,0,0,68.81-15.38,133.85,133.85,0,0,0,57.47-36.93,133.85,133.85,0,0,0,36.93-57.48,134.49,134.49,0,0,0,15.38-68.81L417.21,227a178.28,178.28,0,0,0-45.93-78.81l-36.14-27.93A177.82,177.82,0,0,0,245,95.85a134.51,134.51,0,0,0-68.81,15.38,133.76,133.76,0,0,0-57.47,36.93,133.79,133.79,0,0,0-36.93,57.48,134.47,134.47,0,0,0-15.38,68.8l6.38,47.48a178.28,178.28,0,0,0,45.93,78.81l36.14,27.92A177.73,177.73,0,0,0,245,453Z" transform="translate(167.03 194.26)"/><path class="cls-3" d="M280.56,278.59a134.47,134.47,0,0,0,68.8-15.38,133.79,133.79,0,0,0,57.48-36.93,133.76,133.76,0,0,0,36.93-57.47A134.51,134.51,0,0,0,459.15,100l-6.38-47.48a178.49,178.49,0,0,0-45.93-78.8L370.7-54.21a177.75,177.75,0,0,0-90.14-24.38,134.49,134.49,0,0,0-68.81,15.38,133.85,133.85,0,0,0-57.48,36.93,133.85,133.85,0,0,0-36.93,57.47A134.51,134.51,0,0,0,102,100l6.38,47.48a178.49,178.49,0,0,0,45.93,78.8l36.15,27.93a177.7,177.7,0,0,0,90.14,24.38Z" transform="translate(167.03 194.26)"/><path class="cls-3" d="M560.56,303a134.47,134.47,0,0,0,68.8-15.38,133.88,133.88,0,0,0,57.48-36.93,133.85,133.85,0,0,0,36.93-57.48,134.49,134.49,0,0,0,15.38-68.81L732.77,77A178.47,178.47,0,0,0,686.84-1.84L650.7-29.77a177.85,177.85,0,0,0-90.14-24.38,134.49,134.49,0,0,0-68.81,15.38A133.85,133.85,0,0,0,434.27-1.84a133.88,133.88,0,0,0-36.93,57.48A134.47,134.47,0,0,0,382,124.44l6.38,47.48a178.47,178.47,0,0,0,45.93,78.81l36.15,27.92A177.71,177.71,0,0,0,560.56,303Z" transform="translate(167.03 194.26)"/><path class="cls-3" d="M801.67,308.59a134.51,134.51,0,0,0,68.81-15.38A133.76,133.76,0,0,0,928,256.28a133.76,133.76,0,0,0,36.93-57.47A134.51,134.51,0,0,0,980.26,130l-6.38-47.48A178.3,178.3,0,0,0,928,3.72L891.81-24.21a177.75,177.75,0,0,0-90.14-24.38,134.49,134.49,0,0,0-68.81,15.38A133.85,133.85,0,0,0,675.38,3.72a133.94,133.94,0,0,0-36.93,57.47A134.61,134.61,0,0,0,623.07,130l6.38,47.48a178.49,178.49,0,0,0,45.93,78.8l36.15,27.93a177.7,177.7,0,0,0,90.14,24.38Z" transform="translate(167.03 194.26)"/><path class="cls-3" d="M640.56,449.7a134.37,134.37,0,0,0,68.8-15.38,133.86,133.86,0,0,0,57.48-36.92,133.85,133.85,0,0,0,36.93-57.48,134.49,134.49,0,0,0,15.38-68.81l-6.38-47.48a178.49,178.49,0,0,0-45.93-78.8L730.7,116.9a177.85,177.85,0,0,0-90.14-24.38,134.49,134.49,0,0,0-68.81,15.38,133.85,133.85,0,0,0-57.48,36.93,133.85,133.85,0,0,0-36.93,57.47A134.51,134.51,0,0,0,462,271.11l6.38,47.48a178.58,178.58,0,0,0,45.93,78.81l36.15,27.92a177.7,177.7,0,0,0,90.14,24.38Z" transform="translate(167.03 194.26)"/><path class="cls-3" d="M961.67,394.15a134.51,134.51,0,0,0,68.81-15.38A133.76,133.76,0,0,0,1088,341.84a133.79,133.79,0,0,0,36.93-57.48,134.47,134.47,0,0,0,15.38-68.8l-6.38-47.48A178.28,178.28,0,0,0,1088,89.27l-36.14-27.92A177.76,177.76,0,0,0,961.67,37a134.49,134.49,0,0,0-68.81,15.38,133.94,133.94,0,0,0-57.48,36.93,134,134,0,0,0-36.93,57.48,134.59,134.59,0,0,0-15.38,68.81L789.45,263a178.47,178.47,0,0,0,45.93,78.81l36.15,27.93a177.8,177.8,0,0,0,90.14,24.38Z" transform="translate(167.03 194.26)"/><path class="cls-3" d="M996.11,228.59a134.49,134.49,0,0,0,68.81-15.38,133.85,133.85,0,0,0,57.48-36.93,133.83,133.83,0,0,0,36.92-57.47A134.41,134.41,0,0,0,1174.7,50l-6.37-47.48a178.49,178.49,0,0,0-45.93-78.8l-36.15-27.93a177.7,177.7,0,0,0-90.14-24.38,134.51,134.51,0,0,0-68.81,15.38,133.76,133.76,0,0,0-57.47,36.93A133.76,133.76,0,0,0,832.9-18.81,134.51,134.51,0,0,0,817.52,50l6.38,47.48a178.3,178.3,0,0,0,45.93,78.8L906,204.21a177.72,177.72,0,0,0,90.14,24.38Z" transform="translate(167.03 194.26)"/><path class="cls-3" d="M1250.56,294.15a134.47,134.47,0,0,0,68.8-15.38,133.79,133.79,0,0,0,57.48-36.93,133.79,133.79,0,0,0,36.93-57.48,134.47,134.47,0,0,0,15.38-68.8l-6.38-47.48a178.47,178.47,0,0,0-45.93-78.81L1340.7-38.65A177.76,177.76,0,0,0,1250.56-63a134.49,134.49,0,0,0-68.81,15.38,133.94,133.94,0,0,0-57.48,36.93,133.94,133.94,0,0,0-36.93,57.48A134.49,134.49,0,0,0,1072,115.56l6.38,47.47a178.47,178.47,0,0,0,45.93,78.81l36.15,27.93a177.8,177.8,0,0,0,90.14,24.38Z" transform="translate(167.03 194.26)"/><path class="cls-3" d="M1193.89,399.7a134.41,134.41,0,0,0,68.81-15.38,133.83,133.83,0,0,0,57.47-36.92,133.85,133.85,0,0,0,36.93-57.48,134.49,134.49,0,0,0,15.38-68.81l-6.38-47.48a178.3,178.3,0,0,0-45.93-78.8L1284,66.9a177.82,177.82,0,0,0-90.14-24.38,134.49,134.49,0,0,0-68.81,15.38,133.85,133.85,0,0,0-57.48,36.93,133.83,133.83,0,0,0-36.92,57.47,134.41,134.41,0,0,0-15.38,68.81l6.37,47.48a178.58,178.58,0,0,0,45.93,78.81l36.15,27.92a177.7,177.7,0,0,0,90.14,24.38Z" transform="translate(167.03 194.26)"/><path class="cls-3" d="M1468.33,363a134.49,134.49,0,0,0,68.81-15.38,133.94,133.94,0,0,0,57.48-36.93,134,134,0,0,0,36.93-57.48,134.59,134.59,0,0,0,15.38-68.81L1640.55,137a178.47,178.47,0,0,0-45.93-78.81l-36.15-27.93a177.8,177.8,0,0,0-90.14-24.38,134.51,134.51,0,0,0-68.81,15.38,133.76,133.76,0,0,0-57.47,36.93,133.79,133.79,0,0,0-36.93,57.48,134.47,134.47,0,0,0-15.38,68.8l6.38,47.48a178.28,178.28,0,0,0,45.93,78.81l36.14,27.92A177.76,177.76,0,0,0,1468.33,363Z" transform="translate(167.03 194.26)"/><path class="cls-3" d="M1437.22,244.15A134.49,134.49,0,0,0,1506,228.77a133.85,133.85,0,0,0,57.48-36.93,133.86,133.86,0,0,0,36.92-57.48,134.48,134.48,0,0,0,15.39-68.8l-6.38-47.48a178.47,178.47,0,0,0-45.93-78.81l-36.15-27.92A177.71,177.71,0,0,0,1437.22-113a134.51,134.51,0,0,0-68.81,15.38,133.85,133.85,0,0,0-57.47,36.93A133.85,133.85,0,0,0,1274-3.25a134.49,134.49,0,0,0-15.38,68.81L1265,113a178.28,178.28,0,0,0,45.93,78.81l36.14,27.93a177.82,177.82,0,0,0,90.14,24.38Z" transform="translate(167.03 194.26)"/><path class="cls-3" d="M1699.44,299.7a134.39,134.39,0,0,0,68.81-15.38,133.92,133.92,0,0,0,57.48-36.92,133.94,133.94,0,0,0,36.93-57.48A134.49,134.49,0,0,0,1878,121.11l-6.38-47.48a178.49,178.49,0,0,0-45.93-78.8L1789.58-33.1a177.8,177.8,0,0,0-90.14-24.38,134.47,134.47,0,0,0-68.8,15.38,133.79,133.79,0,0,0-57.48,36.93,133.76,133.76,0,0,0-36.93,57.47,134.51,134.51,0,0,0-15.38,68.81l6.38,47.48a178.58,178.58,0,0,0,45.93,78.81l36.14,27.92a177.75,177.75,0,0,0,90.14,24.38Z" transform="translate(167.03 194.26)"/><path class="cls-3" d="M1730.56,438.59a134.47,134.47,0,0,0,68.8-15.38,133.79,133.79,0,0,0,57.48-36.93,133.76,133.76,0,0,0,36.93-57.47A134.51,134.51,0,0,0,1909.15,260l-6.38-47.48a178.49,178.49,0,0,0-45.93-78.8l-36.14-27.93a177.75,177.75,0,0,0-90.14-24.38,134.49,134.49,0,0,0-68.81,15.38,133.85,133.85,0,0,0-57.48,36.93,133.85,133.85,0,0,0-36.93,57.47A134.51,134.51,0,0,0,1552,260l6.38,47.48a178.49,178.49,0,0,0,45.93,78.8l36.15,27.93a177.7,177.7,0,0,0,90.14,24.38Z" transform="translate(167.03 194.26)"/><path class="cls-3" d="M1950.56,390.82a134.48,134.48,0,0,0,68.8-15.39,133.86,133.86,0,0,0,57.48-36.92A133.85,133.85,0,0,0,2113.77,281a134.49,134.49,0,0,0,15.38-68.81l-6.38-47.48a178.49,178.49,0,0,0-45.93-78.8L2040.7,58a177.85,177.85,0,0,0-90.14-24.38A134.49,134.49,0,0,0,1881.75,49a133.85,133.85,0,0,0-57.48,36.93,133.85,133.85,0,0,0-36.93,57.47A134.51,134.51,0,0,0,1772,212.22l6.38,47.48a178.58,178.58,0,0,0,45.93,78.81l36.15,27.92a177.71,177.71,0,0,0,90.14,24.39Z" transform="translate(167.03 194.26)"/><path class="cls-3" d="M1901.67,209.7a134.41,134.41,0,0,0,68.81-15.38A133.83,133.83,0,0,0,2028,157.4a133.85,133.85,0,0,0,36.93-57.48,134.49,134.49,0,0,0,15.38-68.81l-6.38-47.48A178.3,178.3,0,0,0,2028-95.17l-36.14-27.93a177.85,177.85,0,0,0-90.14-24.38,134.49,134.49,0,0,0-68.81,15.38,133.85,133.85,0,0,0-57.48,36.93,133.94,133.94,0,0,0-36.93,57.47,134.61,134.61,0,0,0-15.38,68.81l6.38,47.48a178.58,178.58,0,0,0,45.93,78.81l36.15,27.92a177.7,177.7,0,0,0,90.14,24.38Z" transform="translate(167.03 194.26)"/><path class="cls-3" d="M2199.44,247.48a134.49,134.49,0,0,0,68.81-15.38,133.85,133.85,0,0,0,57.48-36.93,133.85,133.85,0,0,0,36.93-57.47A134.51,134.51,0,0,0,2378,68.89l-6.38-47.48a178.58,178.58,0,0,0-45.93-78.81l-36.15-27.92a177.7,177.7,0,0,0-90.14-24.38,134.37,134.37,0,0,0-68.8,15.38,133.86,133.86,0,0,0-57.48,36.92A133.85,133.85,0,0,0,2036.23.08a134.49,134.49,0,0,0-15.38,68.81l6.38,47.48a178.49,178.49,0,0,0,45.93,78.8l36.14,27.93a177.85,177.85,0,0,0,90.14,24.38Z" transform="translate(167.03 194.26)"/><path class="cls-3" d="M2262.78,409.7a134.41,134.41,0,0,0,68.81-15.38,133.83,133.83,0,0,0,57.47-36.92A133.85,133.85,0,0,0,2426,299.92a134.49,134.49,0,0,0,15.38-68.81L2435,183.63a178.3,178.3,0,0,0-45.93-78.8L2352.92,76.9a177.82,177.82,0,0,0-90.14-24.38A134.49,134.49,0,0,0,2194,67.9a133.85,133.85,0,0,0-57.48,36.93,133.83,133.83,0,0,0-36.92,57.47,134.52,134.52,0,0,0-15.39,68.81l6.38,47.48a178.58,178.58,0,0,0,45.93,78.81l36.15,27.92a177.7,177.7,0,0,0,90.14,24.38Z" transform="translate(167.03 194.26)"/><path class="cls-3" d="M2480.56,327.48a134.47,134.47,0,0,0,68.8-15.38,133.79,133.79,0,0,0,57.48-36.93,133.76,133.76,0,0,0,36.93-57.47,134.51,134.51,0,0,0,15.38-68.81l-6.38-47.48a178.58,178.58,0,0,0-45.93-78.81L2570.7-5.32a177.75,177.75,0,0,0-90.14-24.38,134.39,134.39,0,0,0-68.81,15.38,133.92,133.92,0,0,0-57.48,36.92,133.94,133.94,0,0,0-36.93,57.48A134.49,134.49,0,0,0,2302,148.89l6.38,47.48a178.49,178.49,0,0,0,45.93,78.8l36.15,27.93a177.8,177.8,0,0,0,90.14,24.38Z" transform="translate(167.03 194.26)"/><path class="cls-3" d="M2489.44,503a134.49,134.49,0,0,0,68.81-15.38,133.94,133.94,0,0,0,57.48-36.93,133.94,133.94,0,0,0,36.93-57.48A134.49,134.49,0,0,0,2668,324.44L2661.66,277a178.47,178.47,0,0,0-45.93-78.81l-36.15-27.93a177.8,177.8,0,0,0-90.14-24.38,134.47,134.47,0,0,0-68.8,15.38,133.79,133.79,0,0,0-57.48,36.93,133.79,133.79,0,0,0-36.93,57.48,134.47,134.47,0,0,0-15.38,68.8l6.38,47.48a178.47,178.47,0,0,0,45.93,78.81l36.14,27.92A177.76,177.76,0,0,0,2489.44,503Z" transform="translate(167.03 194.26)"/><path class="cls-3" d="M2077.22,516.37A134.49,134.49,0,0,0,2146,501a133.85,133.85,0,0,0,57.48-36.93,133.83,133.83,0,0,0,36.92-57.47,134.52,134.52,0,0,0,15.39-68.81l-6.38-47.48a178.58,178.58,0,0,0-45.93-78.81l-36.15-27.92a177.71,177.71,0,0,0-90.14-24.39,134.52,134.52,0,0,0-68.81,15.39,133.83,133.83,0,0,0-57.47,36.92A133.85,133.85,0,0,0,1914,269a134.49,134.49,0,0,0-15.38,68.81l6.38,47.48a178.3,178.3,0,0,0,45.93,78.8L1987.08,492a177.82,177.82,0,0,0,90.14,24.38Z" transform="translate(167.03 194.26)"/><path class="cls-3" d="M2697.22,418.59A134.49,134.49,0,0,0,2766,403.21a133.85,133.85,0,0,0,57.48-36.93,133.83,133.83,0,0,0,36.92-57.47A134.52,134.52,0,0,0,2875.82,240l-6.38-47.48a178.49,178.49,0,0,0-45.93-78.8l-36.15-27.93a177.7,177.7,0,0,0-90.14-24.38,134.51,134.51,0,0,0-68.81,15.38,133.76,133.76,0,0,0-57.47,36.93A133.76,133.76,0,0,0,2534,171.19,134.51,134.51,0,0,0,2518.63,240l6.38,47.48a178.3,178.3,0,0,0,45.93,78.8l36.14,27.93a177.72,177.72,0,0,0,90.14,24.38Z" transform="translate(167.03 194.26)"/><path class="cls-3" d="M2742.78,299.7a134.41,134.41,0,0,0,68.81-15.38,133.83,133.83,0,0,0,57.47-36.92A133.85,133.85,0,0,0,2906,189.92a134.49,134.49,0,0,0,15.38-68.81L2915,73.63a178.3,178.3,0,0,0-45.93-78.8L2832.92-33.1a177.82,177.82,0,0,0-90.14-24.38A134.49,134.49,0,0,0,2674-42.1a133.85,133.85,0,0,0-57.48,36.93,133.83,133.83,0,0,0-36.92,57.47,134.52,134.52,0,0,0-15.39,68.81l6.38,47.48a178.58,178.58,0,0,0,45.93,78.81l36.15,27.92a177.7,177.7,0,0,0,90.14,24.38Z" transform="translate(167.03 194.26)"/><path class="cls-3" d="M2649.44,225.26a134.49,134.49,0,0,0,68.81-15.38A133.85,133.85,0,0,0,2775.73,173a133.85,133.85,0,0,0,36.93-57.47A134.51,134.51,0,0,0,2828,46.67L2821.66-.81a178.53,178.53,0,0,0-45.93-78.81l-36.15-27.92a177.71,177.71,0,0,0-90.14-24.39,134.58,134.58,0,0,0-68.8,15.38,134,134,0,0,0-57.48,36.93,133.85,133.85,0,0,0-36.93,57.48,134.49,134.49,0,0,0-15.38,68.81l6.38,47.47A178.47,178.47,0,0,0,2523.16,173l36.14,27.93a177.85,177.85,0,0,0,90.14,24.38Z" transform="translate(167.03 194.26)"/><path class="cls-3" d="M3251.67,421.93a134.61,134.61,0,0,0,68.81-15.38A133.94,133.94,0,0,0,3378,369.62a133.85,133.85,0,0,0,36.93-57.48,134.49,134.49,0,0,0,15.38-68.81l-6.38-47.47A178.28,178.28,0,0,0,3378,117.05l-36.14-27.93a177.85,177.85,0,0,0-90.14-24.38,134.49,134.49,0,0,0-68.81,15.38,133.85,133.85,0,0,0-57.48,36.93,133.94,133.94,0,0,0-36.93,57.47,134.61,134.61,0,0,0-15.38,68.81l6.38,47.48a178.53,178.53,0,0,0,45.93,78.81l36.15,27.92a177.71,177.71,0,0,0,90.14,24.39Z" transform="translate(167.03 194.26)"/><path class="cls-3" d="M2945,518.59a134.51,134.51,0,0,0,68.81-15.38,133.76,133.76,0,0,0,57.47-36.93,133.76,133.76,0,0,0,36.93-57.47A134.51,134.51,0,0,0,3123.59,340l-6.38-47.48a178.3,178.3,0,0,0-45.93-78.8l-36.14-27.93A177.72,177.72,0,0,0,2945,161.41a134.51,134.51,0,0,0-68.81,15.38,133.76,133.76,0,0,0-57.47,36.93,133.76,133.76,0,0,0-36.93,57.47A134.51,134.51,0,0,0,2766.41,340l6.38,47.48a178.3,178.3,0,0,0,45.93,78.8l36.14,27.93A177.72,177.72,0,0,0,2945,518.59Z" transform="translate(167.03 194.26)"/><path class="cls-3" d="M3318.33,566.37A134.49,134.49,0,0,0,3387.14,551a133.85,133.85,0,0,0,57.48-36.93,133.94,133.94,0,0,0,36.93-57.47,134.61,134.61,0,0,0,15.38-68.81l-6.38-47.48a178.58,178.58,0,0,0-45.93-78.81l-36.15-27.92a177.71,177.71,0,0,0-90.14-24.39,134.52,134.52,0,0,0-68.81,15.39,133.83,133.83,0,0,0-57.47,36.92A133.85,133.85,0,0,0,3155.12,319a134.49,134.49,0,0,0-15.38,68.81l6.38,47.48a178.3,178.3,0,0,0,45.93,78.8L3228.19,542a177.85,177.85,0,0,0,90.14,24.38Z" transform="translate(167.03 194.26)"/><path class="cls-3" d="M3667.22,487.48A134.49,134.49,0,0,0,3736,472.1a133.85,133.85,0,0,0,57.48-36.93,133.83,133.83,0,0,0,36.92-57.47,134.52,134.52,0,0,0,15.39-68.81l-6.38-47.48a178.58,178.58,0,0,0-45.93-78.81l-36.15-27.92a177.7,177.7,0,0,0-90.14-24.38,134.41,134.41,0,0,0-68.81,15.38,133.83,133.83,0,0,0-57.47,36.92A133.85,133.85,0,0,0,3504,240.08a134.49,134.49,0,0,0-15.38,68.81l6.38,47.48a178.3,178.3,0,0,0,45.93,78.8l36.14,27.93a177.82,177.82,0,0,0,90.14,24.38Z" transform="translate(167.03 194.26)"/><path class="cls-3" d="M3496.11,399.7a134.39,134.39,0,0,0,68.81-15.38,133.92,133.92,0,0,0,57.48-36.92,133.92,133.92,0,0,0,36.92-57.48,134.39,134.39,0,0,0,15.38-68.81l-6.37-47.48a178.49,178.49,0,0,0-45.93-78.8L3586.25,66.9a177.8,177.8,0,0,0-90.14-24.38A134.51,134.51,0,0,0,3427.3,57.9a133.76,133.76,0,0,0-57.47,36.93,133.76,133.76,0,0,0-36.93,57.47,134.51,134.51,0,0,0-15.38,68.81l6.38,47.48a178.39,178.39,0,0,0,45.93,78.81L3406,375.32a177.72,177.72,0,0,0,90.14,24.38Z" transform="translate(167.03 194.26)"/><path class="cls-3" d="M3108.33,483a134.49,134.49,0,0,0,68.81-15.38,133.94,133.94,0,0,0,57.48-36.93,134,134,0,0,0,36.93-57.48,134.59,134.59,0,0,0,15.38-68.81L3280.55,257a178.47,178.47,0,0,0-45.93-78.81l-36.15-27.93a177.8,177.8,0,0,0-90.14-24.38,134.51,134.51,0,0,0-68.81,15.38,133.76,133.76,0,0,0-57.47,36.93,133.79,133.79,0,0,0-36.93,57.48,134.47,134.47,0,0,0-15.38,68.8l6.38,47.48a178.28,178.28,0,0,0,45.93,78.81l36.14,27.92A177.76,177.76,0,0,0,3108.33,483Z" transform="translate(167.03 194.26)"/><path class="cls-3" d="M3019.44,304.15a134.49,134.49,0,0,0,68.81-15.38,133.85,133.85,0,0,0,57.48-36.93,133.88,133.88,0,0,0,36.93-57.48,134.47,134.47,0,0,0,15.38-68.8l-6.38-47.48A178.47,178.47,0,0,0,3145.73-.73l-36.15-27.92A177.71,177.71,0,0,0,3019.44-53a134.47,134.47,0,0,0-68.8,15.38A133.88,133.88,0,0,0,2893.16-.73a133.85,133.85,0,0,0-36.93,57.48,134.49,134.49,0,0,0-15.38,68.81l6.38,47.47a178.47,178.47,0,0,0,45.93,78.81l36.14,27.93a177.85,177.85,0,0,0,90.14,24.38Z" transform="translate(167.03 194.26)"/><path class="cls-3" d="M3385,281.93a134.61,134.61,0,0,0,68.81-15.38,133.94,133.94,0,0,0,57.47-36.93,133.85,133.85,0,0,0,36.93-57.48,134.49,134.49,0,0,0,15.38-68.81l-6.38-47.47a178.28,178.28,0,0,0-45.93-78.81l-36.14-27.93A177.82,177.82,0,0,0,3385-75.26a134.51,134.51,0,0,0-68.81,15.38,133.76,133.76,0,0,0-57.47,36.93,133.76,133.76,0,0,0-36.93,57.47,134.51,134.51,0,0,0-15.38,68.81l6.38,47.48a178.34,178.34,0,0,0,45.93,78.81l36.14,27.92A177.73,177.73,0,0,0,3385,281.93Z" transform="translate(167.03 194.26)"/><path class="cls-3" d="M3208.33,246.37A134.49,134.49,0,0,0,3277.14,231a133.85,133.85,0,0,0,57.48-36.93,133.94,133.94,0,0,0,36.93-57.47,134.61,134.61,0,0,0,15.38-68.81l-6.38-47.48a178.58,178.58,0,0,0-45.93-78.81l-36.15-27.92a177.71,177.71,0,0,0-90.14-24.39,134.52,134.52,0,0,0-68.81,15.39,133.83,133.83,0,0,0-57.47,36.92A133.85,133.85,0,0,0,3045.12-1a134.49,134.49,0,0,0-15.38,68.81l6.38,47.48a178.3,178.3,0,0,0,45.93,78.8L3118.19,222a177.85,177.85,0,0,0,90.14,24.38Z" transform="translate(167.03 194.26)"/><path class="cls-3" d="M3673.89,251.93a134.61,134.61,0,0,0,68.81-15.38,133.94,133.94,0,0,0,57.47-36.93,133.85,133.85,0,0,0,36.93-57.48,134.49,134.49,0,0,0,15.38-68.81l-6.38-47.47a178.28,178.28,0,0,0-45.93-78.81L3764-80.88a177.82,177.82,0,0,0-90.14-24.38,134.49,134.49,0,0,0-68.81,15.38,133.85,133.85,0,0,0-57.48,36.93,133.83,133.83,0,0,0-36.92,57.47,134.41,134.41,0,0,0-15.38,68.81l6.37,47.48a178.53,178.53,0,0,0,45.93,78.81l36.15,27.92a177.71,177.71,0,0,0,90.14,24.39Z" transform="translate(167.03 194.26)"/><path class="cls-3" d="M3815,306.37A134.51,134.51,0,0,0,3883.81,291a133.76,133.76,0,0,0,57.47-36.93,133.76,133.76,0,0,0,36.93-57.47,134.51,134.51,0,0,0,15.38-68.81l-6.38-47.48a178.39,178.39,0,0,0-45.93-78.81l-36.14-27.92A177.73,177.73,0,0,0,3815-50.82a134.52,134.52,0,0,0-68.81,15.39,133.83,133.83,0,0,0-57.47,36.92A133.85,133.85,0,0,0,3651.79,59a134.49,134.49,0,0,0-15.38,68.81l6.38,47.48a178.3,178.3,0,0,0,45.93,78.8L3724.86,282A177.82,177.82,0,0,0,3815,306.37Z" transform="translate(167.03 194.26)"/><path class="cls-3" d="M4012.78,279.7a134.41,134.41,0,0,0,68.81-15.38,133.83,133.83,0,0,0,57.47-36.92A133.85,133.85,0,0,0,4176,169.92a134.49,134.49,0,0,0,15.38-68.81L4185,53.63a178.3,178.3,0,0,0-45.93-78.8L4102.92-53.1a177.82,177.82,0,0,0-90.14-24.38A134.49,134.49,0,0,0,3944-62.1a133.85,133.85,0,0,0-57.48,36.93,133.83,133.83,0,0,0-36.92,57.47,134.52,134.52,0,0,0-15.39,68.81l6.38,47.48a178.58,178.58,0,0,0,45.93,78.81l36.15,27.92a177.7,177.7,0,0,0,90.14,24.38Z" transform="translate(167.03 194.26)"/><path class="cls-3" d="M3865,454.15a134.51,134.51,0,0,0,68.81-15.38,133.76,133.76,0,0,0,57.47-36.93,133.79,133.79,0,0,0,36.93-57.48,134.47,134.47,0,0,0,15.38-68.8l-6.38-47.48a178.28,178.28,0,0,0-45.93-78.81l-36.14-27.92A177.73,177.73,0,0,0,3865,97a134.51,134.51,0,0,0-68.81,15.38,133.85,133.85,0,0,0-57.47,36.93,133.85,133.85,0,0,0-36.93,57.48,134.49,134.49,0,0,0-15.38,68.81l6.38,47.47a178.28,178.28,0,0,0,45.93,78.81l36.14,27.93A177.82,177.82,0,0,0,3865,454.15Z" transform="translate(167.03 194.26)"/><path class="cls-3" d="M3476.11,486.37A134.49,134.49,0,0,0,3544.92,471a133.85,133.85,0,0,0,57.48-36.93,133.83,133.83,0,0,0,36.92-57.47,134.41,134.41,0,0,0,15.38-68.81l-6.37-47.48a178.58,178.58,0,0,0-45.93-78.81l-36.15-27.92a177.71,177.71,0,0,0-90.14-24.39,134.52,134.52,0,0,0-68.81,15.39,133.83,133.83,0,0,0-57.47,36.92A133.85,133.85,0,0,0,3312.9,239a134.49,134.49,0,0,0-15.38,68.81l6.38,47.48a178.3,178.3,0,0,0,45.93,78.8L3386,462a177.82,177.82,0,0,0,90.14,24.38Z" transform="translate(167.03 194.26)"/><path class="cls-3" d="M2841.67,489.7a134.41,134.41,0,0,0,68.81-15.38A133.83,133.83,0,0,0,2968,437.4a133.85,133.85,0,0,0,36.93-57.48,134.49,134.49,0,0,0,15.38-68.81l-6.38-47.48a178.3,178.3,0,0,0-45.93-78.8l-36.14-27.93a177.85,177.85,0,0,0-90.14-24.38,134.49,134.49,0,0,0-68.81,15.38,133.85,133.85,0,0,0-57.48,36.93,133.94,133.94,0,0,0-36.93,57.47,134.61,134.61,0,0,0-15.38,68.81l6.38,47.48a178.58,178.58,0,0,0,45.93,78.81l36.15,27.92a177.7,177.7,0,0,0,90.14,24.38Z" transform="translate(167.03 194.26)"/><path class="cls-3" d="M1935,444.15a134.51,134.51,0,0,0,68.81-15.38,133.76,133.76,0,0,0,57.47-36.93,133.79,133.79,0,0,0,36.93-57.48,134.47,134.47,0,0,0,15.38-68.8l-6.38-47.48a178.28,178.28,0,0,0-45.93-78.81l-36.14-27.92A177.73,177.73,0,0,0,1935,87a134.51,134.51,0,0,0-68.81,15.38,133.85,133.85,0,0,0-57.47,36.93,133.85,133.85,0,0,0-36.93,57.48,134.49,134.49,0,0,0-15.38,68.81l6.38,47.47a178.28,178.28,0,0,0,45.93,78.81l36.14,27.93A177.82,177.82,0,0,0,1935,444.15Z" transform="translate(167.03 194.26)"/><path class="cls-3" d="M2297.22,494.15A134.49,134.49,0,0,0,2366,478.77a133.85,133.85,0,0,0,57.48-36.93,133.86,133.86,0,0,0,36.92-57.48,134.48,134.48,0,0,0,15.39-68.8l-6.38-47.48a178.47,178.47,0,0,0-45.93-78.81l-36.15-27.92A177.71,177.71,0,0,0,2297.22,137a134.51,134.51,0,0,0-68.81,15.38,133.85,133.85,0,0,0-57.47,36.93A133.85,133.85,0,0,0,2134,246.75a134.49,134.49,0,0,0-15.38,68.81L2125,363a178.28,178.28,0,0,0,45.93,78.81l36.14,27.93a177.82,177.82,0,0,0,90.14,24.38Z" transform="translate(167.03 194.26)"/><path class="cls-3" d="M456.11,465.26a134.49,134.49,0,0,0,68.81-15.38A133.85,133.85,0,0,0,582.4,413a133.83,133.83,0,0,0,36.92-57.47,134.41,134.41,0,0,0,15.38-68.81l-6.37-47.48a178.53,178.53,0,0,0-45.93-78.81l-36.15-27.92a177.71,177.71,0,0,0-90.14-24.39,134.61,134.61,0,0,0-68.81,15.38,133.94,133.94,0,0,0-57.47,36.93,133.85,133.85,0,0,0-36.93,57.48,134.49,134.49,0,0,0-15.38,68.81l6.38,47.47A178.28,178.28,0,0,0,329.83,413L366,440.88a177.82,177.82,0,0,0,90.14,24.38Z" transform="translate(167.03 194.26)"/><path class="cls-3" d="M828.33,465.26a134.49,134.49,0,0,0,68.81-15.38A133.85,133.85,0,0,0,954.62,413a133.94,133.94,0,0,0,36.93-57.47,134.61,134.61,0,0,0,15.38-68.81l-6.38-47.48a178.53,178.53,0,0,0-45.93-78.81l-36.15-27.92a177.71,177.71,0,0,0-90.14-24.39,134.61,134.61,0,0,0-68.81,15.38,133.94,133.94,0,0,0-57.47,36.93,133.85,133.85,0,0,0-36.93,57.48,134.49,134.49,0,0,0-15.38,68.81l6.38,47.47A178.28,178.28,0,0,0,702.05,413l36.14,27.93a177.85,177.85,0,0,0,90.14,24.38Z" transform="translate(167.03 194.26)"/><path class="cls-3" d="M60.56,345.26a134.47,134.47,0,0,0,68.8-15.38A133.79,133.79,0,0,0,186.84,293a133.76,133.76,0,0,0,36.93-57.47,134.51,134.51,0,0,0,15.38-68.81l-6.38-47.48a178.53,178.53,0,0,0-45.93-78.81L150.7,12.46A177.76,177.76,0,0,0,60.56-11.93,134.59,134.59,0,0,0-8.25,3.45,134,134,0,0,0-65.73,40.38a133.94,133.94,0,0,0-36.93,57.48A134.49,134.49,0,0,0-118,166.67l6.38,47.47A178.47,178.47,0,0,0-65.73,293l36.15,27.93a177.8,177.8,0,0,0,90.14,24.38Z" transform="translate(167.03 194.26)"/><path class="cls-3" d="M89.44,245.26a134.49,134.49,0,0,0,68.81-15.38A133.85,133.85,0,0,0,215.73,193a133.85,133.85,0,0,0,36.93-57.47A134.51,134.51,0,0,0,268,66.67l-6.38-47.48a178.53,178.53,0,0,0-45.93-78.81L179.58-87.54a177.71,177.71,0,0,0-90.14-24.39,134.58,134.58,0,0,0-68.8,15.38A134,134,0,0,0-36.84-59.62,133.85,133.85,0,0,0-73.77-2.14,134.49,134.49,0,0,0-89.15,66.67l6.38,47.47A178.47,178.47,0,0,0-36.84,193L-.7,220.88a177.85,177.85,0,0,0,90.14,24.38Z" transform="translate(167.03 194.26)"/><path class="cls-3" d="M11.67,495.26a134.51,134.51,0,0,0,68.81-15.38A133.76,133.76,0,0,0,138,443a133.76,133.76,0,0,0,36.93-57.47,134.51,134.51,0,0,0,15.38-68.81l-6.38-47.48A178.34,178.34,0,0,0,138,190.38l-36.14-27.92a177.76,177.76,0,0,0-90.14-24.39,134.59,134.59,0,0,0-68.81,15.38,134,134,0,0,0-57.48,36.93,134,134,0,0,0-36.93,57.48,134.59,134.59,0,0,0-15.38,68.81l6.38,47.47A178.47,178.47,0,0,0-114.62,443l36.15,27.93a177.8,177.8,0,0,0,90.14,24.38Z" transform="translate(167.03 194.26)"/><path class="cls-3" d="M2667.22,511.93A134.59,134.59,0,0,0,2736,496.55a134,134,0,0,0,57.48-36.93,133.92,133.92,0,0,0,36.92-57.48,134.5,134.5,0,0,0,15.39-68.81l-6.38-47.47a178.47,178.47,0,0,0-45.93-78.81l-36.15-27.93a177.8,177.8,0,0,0-90.14-24.38,134.51,134.51,0,0,0-68.81,15.38,133.76,133.76,0,0,0-57.47,36.93A133.76,133.76,0,0,0,2504,264.52a134.51,134.51,0,0,0-15.38,68.81l6.38,47.48a178.34,178.34,0,0,0,45.93,78.81l36.14,27.92a177.73,177.73,0,0,0,90.14,24.39Z" transform="translate(167.03 194.26)"/><path class="cls-4" d="M73.89,231.93a134.61,134.61,0,0,0,68.81-15.38,133.94,133.94,0,0,0,57.47-36.93,133.85,133.85,0,0,0,36.93-57.48,134.49,134.49,0,0,0,15.38-68.81L246.1,5.86a178.28,178.28,0,0,0-45.93-78.81L164-100.88a177.82,177.82,0,0,0-90.14-24.38A134.49,134.49,0,0,0,5.08-109.88,133.85,133.85,0,0,0-52.4-72.95,133.83,133.83,0,0,0-89.32-15.48,134.41,134.41,0,0,0-104.7,53.33l6.37,47.48A178.53,178.53,0,0,0-52.4,179.62l36.15,27.92a177.71,177.71,0,0,0,90.14,24.39Z" transform="translate(167.03 194.26)"/><path class="cls-4" d="M285,243a134.51,134.51,0,0,0,68.81-15.38,133.85,133.85,0,0,0,57.47-36.93,133.85,133.85,0,0,0,36.93-57.48,134.49,134.49,0,0,0,15.38-68.81L457.21,17a178.28,178.28,0,0,0-45.93-78.81L375.14-89.77A177.82,177.82,0,0,0,285-114.15a134.51,134.51,0,0,0-68.81,15.38,133.76,133.76,0,0,0-57.47,36.93A133.79,133.79,0,0,0,121.79-4.36a134.47,134.47,0,0,0-15.38,68.8l6.38,47.48a178.28,178.28,0,0,0,45.93,78.81l36.14,27.92A177.73,177.73,0,0,0,285,243Z" transform="translate(167.03 194.26)"/><path class="cls-4" d="M48.33,409.7a134.39,134.39,0,0,0,68.81-15.38,133.92,133.92,0,0,0,57.48-36.92,134,134,0,0,0,36.93-57.48,134.59,134.59,0,0,0,15.38-68.81l-6.38-47.48a178.49,178.49,0,0,0-45.93-78.8L138.47,76.9A177.8,177.8,0,0,0,48.33,52.52,134.51,134.51,0,0,0-20.48,67.9a133.76,133.76,0,0,0-57.47,36.93,133.76,133.76,0,0,0-36.93,57.47,134.51,134.51,0,0,0-15.38,68.81l6.38,47.48A178.39,178.39,0,0,0-77.95,357.4l36.14,27.92A177.75,177.75,0,0,0,48.33,409.7Z" transform="translate(167.03 194.26)"/><path class="cls-4" d="M302.78,437.48a134.51,134.51,0,0,0,68.81-15.38,133.76,133.76,0,0,0,57.47-36.93A133.76,133.76,0,0,0,466,327.7a134.51,134.51,0,0,0,15.38-68.81L475,211.41a178.39,178.39,0,0,0-45.93-78.81l-36.14-27.92A177.72,177.72,0,0,0,302.78,80.3,134.39,134.39,0,0,0,234,95.68a133.92,133.92,0,0,0-57.48,36.92,133.92,133.92,0,0,0-36.92,57.48,134.5,134.5,0,0,0-15.39,68.81l6.38,47.48a178.49,178.49,0,0,0,45.93,78.8l36.15,27.93a177.8,177.8,0,0,0,90.14,24.38Z" transform="translate(167.03 194.26)"/><path class="cls-4" d="M462.78,387.48a134.51,134.51,0,0,0,68.81-15.38,133.76,133.76,0,0,0,57.47-36.93A133.76,133.76,0,0,0,626,277.7a134.51,134.51,0,0,0,15.38-68.81L635,161.41A178.39,178.39,0,0,0,589.06,82.6L552.92,54.68A177.72,177.72,0,0,0,462.78,30.3,134.39,134.39,0,0,0,394,45.68,133.92,133.92,0,0,0,336.49,82.6a133.92,133.92,0,0,0-36.92,57.48,134.5,134.5,0,0,0-15.39,68.81l6.38,47.48a178.49,178.49,0,0,0,45.93,78.8l36.15,27.93a177.8,177.8,0,0,0,90.14,24.38Z" transform="translate(167.03 194.26)"/><path class="cls-4" d="M550.56,236.37A134.47,134.47,0,0,0,619.36,221a133.79,133.79,0,0,0,57.48-36.93,133.76,133.76,0,0,0,36.93-57.47,134.51,134.51,0,0,0,15.38-68.81L722.77,10.3a178.58,178.58,0,0,0-45.93-78.81L640.7-96.43a177.76,177.76,0,0,0-90.14-24.39,134.5,134.5,0,0,0-68.81,15.39,133.92,133.92,0,0,0-57.48,36.92A133.94,133.94,0,0,0,387.34-11,134.49,134.49,0,0,0,372,57.78l6.38,47.48a178.49,178.49,0,0,0,45.93,78.8L460.42,212a177.8,177.8,0,0,0,90.14,24.38Z" transform="translate(167.03 194.26)"/><path class="cls-4" d="M673.89,464.15a134.51,134.51,0,0,0,68.81-15.38,133.76,133.76,0,0,0,57.47-36.93,133.79,133.79,0,0,0,36.93-57.48,134.47,134.47,0,0,0,15.38-68.8l-6.38-47.48a178.28,178.28,0,0,0-45.93-78.81L764,131.35A177.73,177.73,0,0,0,673.89,107a134.49,134.49,0,0,0-68.81,15.38,133.94,133.94,0,0,0-57.48,36.93,133.92,133.92,0,0,0-36.92,57.48,134.39,134.39,0,0,0-15.38,68.81L501.67,333a178.47,178.47,0,0,0,45.93,78.81l36.15,27.93a177.8,177.8,0,0,0,90.14,24.38Z" transform="translate(167.03 194.26)"/><path class="cls-4" d="M817.22,424.15A134.49,134.49,0,0,0,886,408.77a133.85,133.85,0,0,0,57.48-36.93,133.86,133.86,0,0,0,36.92-57.48,134.48,134.48,0,0,0,15.39-68.8l-6.38-47.48a178.47,178.47,0,0,0-45.93-78.81L907.36,91.35A177.71,177.71,0,0,0,817.22,67a134.51,134.51,0,0,0-68.81,15.38,133.85,133.85,0,0,0-57.47,36.93A133.85,133.85,0,0,0,654,176.75a134.49,134.49,0,0,0-15.38,68.81L645,293a178.28,178.28,0,0,0,45.93,78.81l36.14,27.93a177.82,177.82,0,0,0,90.14,24.38Z" transform="translate(167.03 194.26)"/><path class="cls-4" d="M827.22,214.15A134.49,134.49,0,0,0,896,198.77a133.85,133.85,0,0,0,57.48-36.93,133.86,133.86,0,0,0,36.92-57.48,134.48,134.48,0,0,0,15.39-68.8l-6.38-47.48a178.47,178.47,0,0,0-45.93-78.81l-36.15-27.92A177.71,177.71,0,0,0,827.22-143a134.51,134.51,0,0,0-68.81,15.38,133.85,133.85,0,0,0-57.47,36.93A133.85,133.85,0,0,0,664-33.25a134.49,134.49,0,0,0-15.38,68.81L655,83a178.28,178.28,0,0,0,45.93,78.81l36.14,27.93a177.82,177.82,0,0,0,90.14,24.38Z" transform="translate(167.03 194.26)"/><path class="cls-4" d="M1049.44,368.59a134.49,134.49,0,0,0,68.81-15.38,133.85,133.85,0,0,0,57.48-36.93,133.85,133.85,0,0,0,36.93-57.47A134.51,134.51,0,0,0,1228,190l-6.38-47.48a178.49,178.49,0,0,0-45.93-78.8l-36.15-27.93a177.7,177.7,0,0,0-90.14-24.38,134.47,134.47,0,0,0-68.8,15.38,133.79,133.79,0,0,0-57.48,36.93,133.76,133.76,0,0,0-36.93,57.47A134.51,134.51,0,0,0,870.85,190l6.38,47.48a178.49,178.49,0,0,0,45.93,78.8l36.14,27.93a177.75,177.75,0,0,0,90.14,24.38Z" transform="translate(167.03 194.26)"/><path class="cls-4" d="M1015,163a134.51,134.51,0,0,0,68.81-15.38,133.85,133.85,0,0,0,57.47-36.93,133.85,133.85,0,0,0,36.93-57.48,134.49,134.49,0,0,0,15.38-68.81L1187.21-63a178.28,178.28,0,0,0-45.93-78.81l-36.14-27.93A177.82,177.82,0,0,0,1015-194.15a134.51,134.51,0,0,0-68.81,15.38,133.76,133.76,0,0,0-57.47,36.93,133.79,133.79,0,0,0-36.93,57.48,134.47,134.47,0,0,0-15.38,68.8l6.38,47.48a178.28,178.28,0,0,0,45.93,78.81l36.14,27.92A177.73,177.73,0,0,0,1015,163Z" transform="translate(167.03 194.26)"/><path class="cls-4" d="M1253.89,375.26a134.51,134.51,0,0,0,68.81-15.38A133.76,133.76,0,0,0,1380.17,323a133.76,133.76,0,0,0,36.93-57.47,134.51,134.51,0,0,0,15.38-68.81l-6.38-47.48a178.34,178.34,0,0,0-45.93-78.81L1344,42.46a177.73,177.73,0,0,0-90.14-24.39,134.59,134.59,0,0,0-68.81,15.38,134,134,0,0,0-57.48,36.93,133.92,133.92,0,0,0-36.92,57.48,134.39,134.39,0,0,0-15.38,68.81l6.37,47.47A178.47,178.47,0,0,0,1127.6,323l36.15,27.93a177.8,177.8,0,0,0,90.14,24.38Z" transform="translate(167.03 194.26)"/><path class="cls-4" d="M1257.22,206.37A134.49,134.49,0,0,0,1326,191a133.85,133.85,0,0,0,57.48-36.93,133.83,133.83,0,0,0,36.92-57.47,134.52,134.52,0,0,0,15.39-68.81l-6.38-47.48a178.58,178.58,0,0,0-45.93-78.81l-36.15-27.92a177.71,177.71,0,0,0-90.14-24.39,134.52,134.52,0,0,0-68.81,15.39,133.83,133.83,0,0,0-57.47,36.92A133.85,133.85,0,0,0,1094-41a134.49,134.49,0,0,0-15.38,68.81L1085,75.26a178.3,178.3,0,0,0,45.93,78.8L1167.08,182a177.82,177.82,0,0,0,90.14,24.38Z" transform="translate(167.03 194.26)"/><path class="cls-4" d="M1609.44,338.59a134.49,134.49,0,0,0,68.81-15.38,133.85,133.85,0,0,0,57.48-36.93,133.85,133.85,0,0,0,36.93-57.47A134.51,134.51,0,0,0,1788,160l-6.38-47.48a178.49,178.49,0,0,0-45.93-78.8L1699.58,5.79a177.7,177.7,0,0,0-90.14-24.38,134.47,134.47,0,0,0-68.8,15.38,133.79,133.79,0,0,0-57.48,36.93,133.76,133.76,0,0,0-36.93,57.47A134.51,134.51,0,0,0,1430.85,160l6.38,47.48a178.49,178.49,0,0,0,45.93,78.8l36.14,27.93a177.75,177.75,0,0,0,90.14,24.38Z" transform="translate(167.03 194.26)"/><path class="cls-4" d="M1479.44,220.82a134.5,134.5,0,0,0,68.81-15.39,133.92,133.92,0,0,0,57.48-36.92A133.94,133.94,0,0,0,1642.66,111,134.49,134.49,0,0,0,1658,42.22l-6.38-47.48a178.49,178.49,0,0,0-45.93-78.8L1569.58-112a177.8,177.8,0,0,0-90.14-24.38,134.47,134.47,0,0,0-68.8,15.38,133.79,133.79,0,0,0-57.48,36.93,133.76,133.76,0,0,0-36.93,57.47,134.51,134.51,0,0,0-15.38,68.81l6.38,47.48a178.58,178.58,0,0,0,45.93,78.81l36.14,27.92a177.76,177.76,0,0,0,90.14,24.39Z" transform="translate(167.03 194.26)"/><path class="cls-4" d="M1815,360.82a134.52,134.52,0,0,0,68.81-15.39,133.83,133.83,0,0,0,57.47-36.92A133.85,133.85,0,0,0,1978.21,251a134.49,134.49,0,0,0,15.38-68.81l-6.38-47.48a178.3,178.3,0,0,0-45.93-78.8L1905.14,28A177.82,177.82,0,0,0,1815,3.63,134.51,134.51,0,0,0,1746.19,19a133.76,133.76,0,0,0-57.47,36.93,133.76,133.76,0,0,0-36.93,57.47,134.51,134.51,0,0,0-15.38,68.81l6.38,47.48a178.39,178.39,0,0,0,45.93,78.81l36.14,27.92A177.73,177.73,0,0,0,1815,360.82Z" transform="translate(167.03 194.26)"/><path class="cls-4" d="M1848.33,446.37A134.49,134.49,0,0,0,1917.14,431a133.85,133.85,0,0,0,57.48-36.93,133.94,133.94,0,0,0,36.93-57.47,134.61,134.61,0,0,0,15.38-68.81l-6.38-47.48a178.58,178.58,0,0,0-45.93-78.81l-36.15-27.92a177.71,177.71,0,0,0-90.14-24.39,134.52,134.52,0,0,0-68.81,15.39,133.83,133.83,0,0,0-57.47,36.92A133.85,133.85,0,0,0,1685.12,199a134.49,134.49,0,0,0-15.38,68.81l6.38,47.48a178.3,178.3,0,0,0,45.93,78.8L1758.19,422a177.85,177.85,0,0,0,90.14,24.38Z" transform="translate(167.03 194.26)"/><path class="cls-4" d="M2080.56,481.93a134.58,134.58,0,0,0,68.8-15.38,134,134,0,0,0,57.48-36.93,133.85,133.85,0,0,0,36.93-57.48,134.49,134.49,0,0,0,15.38-68.81l-6.38-47.47a178.47,178.47,0,0,0-45.93-78.81l-36.14-27.93a177.85,177.85,0,0,0-90.14-24.38,134.49,134.49,0,0,0-68.81,15.38,133.85,133.85,0,0,0-57.48,36.93,133.85,133.85,0,0,0-36.93,57.47A134.51,134.51,0,0,0,1902,303.33l6.38,47.48a178.53,178.53,0,0,0,45.93,78.81l36.15,27.92a177.71,177.71,0,0,0,90.14,24.39Z" transform="translate(167.03 194.26)"/><path class="cls-4" d="M2047.22,280.82A134.5,134.5,0,0,0,2116,265.43a133.92,133.92,0,0,0,57.48-36.92A133.92,133.92,0,0,0,2210.43,171a134.5,134.5,0,0,0,15.39-68.81l-6.38-47.48a178.49,178.49,0,0,0-45.93-78.8L2137.36-52a177.8,177.8,0,0,0-90.14-24.38A134.51,134.51,0,0,0,1978.41-61a133.76,133.76,0,0,0-57.47,36.93A133.76,133.76,0,0,0,1884,33.41a134.51,134.51,0,0,0-15.38,68.81L1875,149.7a178.39,178.39,0,0,0,45.93,78.81l36.14,27.92a177.73,177.73,0,0,0,90.14,24.39Z" transform="translate(167.03 194.26)"/><path class="cls-4" d="M2327.22,435.26A134.49,134.49,0,0,0,2396,419.88,133.85,133.85,0,0,0,2453.51,383a133.83,133.83,0,0,0,36.92-57.47,134.52,134.52,0,0,0,15.39-68.81l-6.38-47.48a178.53,178.53,0,0,0-45.93-78.81l-36.15-27.92a177.71,177.71,0,0,0-90.14-24.39,134.61,134.61,0,0,0-68.81,15.38,133.94,133.94,0,0,0-57.47,36.93A133.85,133.85,0,0,0,2164,187.86a134.49,134.49,0,0,0-15.38,68.81l6.38,47.47A178.28,178.28,0,0,0,2200.94,383l36.14,27.93a177.82,177.82,0,0,0,90.14,24.38Z" transform="translate(167.03 194.26)"/><path class="cls-4" d="M2622.78,417.48a134.51,134.51,0,0,0,68.81-15.38,133.76,133.76,0,0,0,57.47-36.93A133.76,133.76,0,0,0,2786,307.7a134.51,134.51,0,0,0,15.38-68.81L2795,191.41a178.39,178.39,0,0,0-45.93-78.81l-36.14-27.92a177.72,177.72,0,0,0-90.14-24.38A134.39,134.39,0,0,0,2554,75.68a133.92,133.92,0,0,0-57.48,36.92,133.92,133.92,0,0,0-36.92,57.48,134.5,134.5,0,0,0-15.39,68.81l6.38,47.48a178.49,178.49,0,0,0,45.93,78.8l36.15,27.93a177.8,177.8,0,0,0,90.14,24.38Z" transform="translate(167.03 194.26)"/><path class="cls-4" d="M2531.67,465.26a134.51,134.51,0,0,0,68.81-15.38A133.76,133.76,0,0,0,2658,413a133.76,133.76,0,0,0,36.93-57.47,134.51,134.51,0,0,0,15.38-68.81l-6.38-47.48A178.34,178.34,0,0,0,2658,160.38l-36.14-27.92a177.76,177.76,0,0,0-90.14-24.39,134.59,134.59,0,0,0-68.81,15.38,134,134,0,0,0-57.48,36.93,134,134,0,0,0-36.93,57.48,134.59,134.59,0,0,0-15.38,68.81l6.38,47.47A178.47,178.47,0,0,0,2405.38,413l36.15,27.93a177.8,177.8,0,0,0,90.14,24.38Z" transform="translate(167.03 194.26)"/><path class="cls-4" d="M2801.67,515.26a134.51,134.51,0,0,0,68.81-15.38A133.76,133.76,0,0,0,2928,463a133.76,133.76,0,0,0,36.93-57.47,134.51,134.51,0,0,0,15.38-68.81l-6.38-47.48A178.34,178.34,0,0,0,2928,210.38l-36.14-27.92a177.76,177.76,0,0,0-90.14-24.39,134.59,134.59,0,0,0-68.81,15.38,134,134,0,0,0-57.48,36.93,134,134,0,0,0-36.93,57.48,134.59,134.59,0,0,0-15.38,68.81l6.38,47.47A178.47,178.47,0,0,0,2675.38,463l36.15,27.93a177.8,177.8,0,0,0,90.14,24.38Z" transform="translate(167.03 194.26)"/><path class="cls-4" d="M3008.33,495.26a134.49,134.49,0,0,0,68.81-15.38A133.85,133.85,0,0,0,3134.62,443a133.94,133.94,0,0,0,36.93-57.47,134.61,134.61,0,0,0,15.38-68.81l-6.38-47.48a178.53,178.53,0,0,0-45.93-78.81l-36.15-27.92a177.71,177.71,0,0,0-90.14-24.39,134.61,134.61,0,0,0-68.81,15.38,133.94,133.94,0,0,0-57.47,36.93,133.85,133.85,0,0,0-36.93,57.48,134.49,134.49,0,0,0-15.38,68.81l6.38,47.47A178.28,178.28,0,0,0,2882.05,443l36.14,27.93a177.85,177.85,0,0,0,90.14,24.38Z" transform="translate(167.03 194.26)"/><path class="cls-4" d="M2912.78,273a134.51,134.51,0,0,0,68.81-15.38,133.85,133.85,0,0,0,57.47-36.93A133.85,133.85,0,0,0,3076,163.25a134.49,134.49,0,0,0,15.38-68.81L3085,47a178.28,178.28,0,0,0-45.93-78.81l-36.14-27.93a177.82,177.82,0,0,0-90.14-24.38A134.49,134.49,0,0,0,2844-68.77a133.85,133.85,0,0,0-57.48,36.93,133.86,133.86,0,0,0-36.92,57.48,134.48,134.48,0,0,0-15.39,68.8l6.38,47.48a178.47,178.47,0,0,0,45.93,78.81l36.15,27.92A177.71,177.71,0,0,0,2912.78,273Z" transform="translate(167.03 194.26)"/><path class="cls-4" d="M2508.33,241.93a134.59,134.59,0,0,0,68.81-15.38,134,134,0,0,0,57.48-36.93,134,134,0,0,0,36.93-57.48,134.59,134.59,0,0,0,15.38-68.81l-6.38-47.47a178.47,178.47,0,0,0-45.93-78.81l-36.15-27.93a177.8,177.8,0,0,0-90.14-24.38,134.51,134.51,0,0,0-68.81,15.38,133.76,133.76,0,0,0-57.47,36.93,133.76,133.76,0,0,0-36.93,57.47,134.51,134.51,0,0,0-15.38,68.81l6.38,47.48a178.34,178.34,0,0,0,45.93,78.81l36.14,27.92a177.76,177.76,0,0,0,90.14,24.39Z" transform="translate(167.03 194.26)"/><path class="cls-4" d="M2293.89,254.15a134.51,134.51,0,0,0,68.81-15.38,133.76,133.76,0,0,0,57.47-36.93,133.79,133.79,0,0,0,36.93-57.48,134.47,134.47,0,0,0,15.38-68.8l-6.38-47.48a178.28,178.28,0,0,0-45.93-78.81L2384-78.65A177.73,177.73,0,0,0,2293.89-103a134.49,134.49,0,0,0-68.81,15.38,133.94,133.94,0,0,0-57.48,36.93,133.92,133.92,0,0,0-36.92,57.48,134.39,134.39,0,0,0-15.38,68.81l6.37,47.47a178.47,178.47,0,0,0,45.93,78.81l36.15,27.93a177.8,177.8,0,0,0,90.14,24.38Z" transform="translate(167.03 194.26)"/><path class="cls-4" d="M1836.11,203a134.49,134.49,0,0,0,68.81-15.38,133.94,133.94,0,0,0,57.48-36.93,133.92,133.92,0,0,0,36.92-57.48,134.39,134.39,0,0,0,15.38-68.81L2008.33-23a178.47,178.47,0,0,0-45.93-78.81l-36.15-27.93a177.8,177.8,0,0,0-90.14-24.38,134.51,134.51,0,0,0-68.81,15.38,133.76,133.76,0,0,0-57.47,36.93,133.79,133.79,0,0,0-36.93,57.48,134.47,134.47,0,0,0-15.38,68.8l6.38,47.48a178.28,178.28,0,0,0,45.93,78.81L1746,178.65A177.73,177.73,0,0,0,1836.11,203Z" transform="translate(167.03 194.26)"/><path class="cls-4" d="M1669.44,179.7a134.39,134.39,0,0,0,68.81-15.38,133.92,133.92,0,0,0,57.48-36.92,133.94,133.94,0,0,0,36.93-57.48A134.49,134.49,0,0,0,1848,1.11l-6.38-47.48a178.49,178.49,0,0,0-45.93-78.8l-36.15-27.93a177.8,177.8,0,0,0-90.14-24.38,134.47,134.47,0,0,0-68.8,15.38,133.79,133.79,0,0,0-57.48,36.93,133.76,133.76,0,0,0-36.93,57.47,134.51,134.51,0,0,0-15.38,68.81l6.38,47.48a178.58,178.58,0,0,0,45.93,78.81l36.14,27.92a177.75,177.75,0,0,0,90.14,24.38Z" transform="translate(167.03 194.26)"/><path class="cls-4" d="M2727.22,241.93A134.59,134.59,0,0,0,2796,226.55a134,134,0,0,0,57.48-36.93,133.92,133.92,0,0,0,36.92-57.48,134.5,134.5,0,0,0,15.39-68.81l-6.38-47.47a178.47,178.47,0,0,0-45.93-78.81l-36.15-27.93a177.8,177.8,0,0,0-90.14-24.38,134.51,134.51,0,0,0-68.81,15.38,133.76,133.76,0,0,0-57.47,36.93A133.76,133.76,0,0,0,2564-5.48a134.51,134.51,0,0,0-15.38,68.81l6.38,47.48a178.34,178.34,0,0,0,45.93,78.81l36.14,27.92a177.73,177.73,0,0,0,90.14,24.39Z" transform="translate(167.03 194.26)"/><path class="cls-4" d="M3259.44,536.37A134.49,134.49,0,0,0,3328.25,521a133.85,133.85,0,0,0,57.48-36.93,133.85,133.85,0,0,0,36.93-57.47A134.51,134.51,0,0,0,3438,357.78l-6.38-47.48a178.58,178.58,0,0,0-45.93-78.81l-36.15-27.92a177.71,177.71,0,0,0-90.14-24.39,134.48,134.48,0,0,0-68.8,15.39,133.86,133.86,0,0,0-57.48,36.92A133.85,133.85,0,0,0,3096.23,289a134.49,134.49,0,0,0-15.38,68.81l6.38,47.48a178.49,178.49,0,0,0,45.93,78.8L3169.3,512a177.85,177.85,0,0,0,90.14,24.38Z" transform="translate(167.03 194.26)"/><path class="cls-4" d="M3441.67,404.15a134.51,134.51,0,0,0,68.81-15.38A133.76,133.76,0,0,0,3568,351.84a133.79,133.79,0,0,0,36.93-57.48,134.47,134.47,0,0,0,15.38-68.8l-6.38-47.48A178.28,178.28,0,0,0,3568,99.27l-36.14-27.92A177.76,177.76,0,0,0,3441.67,47a134.49,134.49,0,0,0-68.81,15.38,133.94,133.94,0,0,0-57.48,36.93,134,134,0,0,0-36.93,57.48,134.59,134.59,0,0,0-15.38,68.81l6.38,47.47a178.47,178.47,0,0,0,45.93,78.81l36.15,27.93a177.8,177.8,0,0,0,90.14,24.38Z" transform="translate(167.03 194.26)"/><path class="cls-4" d="M3245,287.48a134.51,134.51,0,0,0,68.81-15.38,133.76,133.76,0,0,0,57.47-36.93,133.76,133.76,0,0,0,36.93-57.47,134.51,134.51,0,0,0,15.38-68.81l-6.38-47.48a178.39,178.39,0,0,0-45.93-78.81l-36.14-27.92A177.72,177.72,0,0,0,3245-69.7a134.41,134.41,0,0,0-68.81,15.38,133.83,133.83,0,0,0-57.47,36.92,133.85,133.85,0,0,0-36.93,57.48,134.49,134.49,0,0,0-15.38,68.81l6.38,47.48a178.3,178.3,0,0,0,45.93,78.8l36.14,27.93A177.82,177.82,0,0,0,3245,287.48Z" transform="translate(167.03 194.26)"/><path class="cls-4" d="M3100.56,249.7a134.37,134.37,0,0,0,68.8-15.38,133.86,133.86,0,0,0,57.48-36.92,133.85,133.85,0,0,0,36.93-57.48,134.49,134.49,0,0,0,15.38-68.81l-6.38-47.48a178.49,178.49,0,0,0-45.93-78.8L3190.7-83.1a177.85,177.85,0,0,0-90.14-24.38,134.49,134.49,0,0,0-68.81,15.38,133.85,133.85,0,0,0-57.48,36.93A133.85,133.85,0,0,0,2937.34,2.3,134.51,134.51,0,0,0,2922,71.11l6.38,47.48a178.58,178.58,0,0,0,45.93,78.81l36.15,27.92a177.7,177.7,0,0,0,90.14,24.38Z" transform="translate(167.03 194.26)"/><path class="cls-4" d="M3518.33,298.59a134.49,134.49,0,0,0,68.81-15.38,133.85,133.85,0,0,0,57.48-36.93,133.94,133.94,0,0,0,36.93-57.47A134.61,134.61,0,0,0,3696.93,120l-6.38-47.48a178.49,178.49,0,0,0-45.93-78.8l-36.15-27.93a177.7,177.7,0,0,0-90.14-24.38,134.51,134.51,0,0,0-68.81,15.38,133.76,133.76,0,0,0-57.47,36.93,133.76,133.76,0,0,0-36.93,57.47A134.51,134.51,0,0,0,3339.74,120l6.38,47.48a178.3,178.3,0,0,0,45.93,78.8l36.14,27.93a177.75,177.75,0,0,0,90.14,24.38Z" transform="translate(167.03 194.26)"/><path class="cls-4" d="M3738.33,323a134.49,134.49,0,0,0,68.81-15.38,133.94,133.94,0,0,0,57.48-36.93,134,134,0,0,0,36.93-57.48,134.59,134.59,0,0,0,15.38-68.81L3910.55,97a178.47,178.47,0,0,0-45.93-78.81L3828.47-9.77a177.8,177.8,0,0,0-90.14-24.38,134.51,134.51,0,0,0-68.81,15.38,133.76,133.76,0,0,0-57.47,36.93,133.79,133.79,0,0,0-36.93,57.48,134.47,134.47,0,0,0-15.38,68.8l6.38,47.48a178.28,178.28,0,0,0,45.93,78.81l36.14,27.92A177.76,177.76,0,0,0,3738.33,323Z" transform="translate(167.03 194.26)"/><path class="cls-4" d="M3689.44,454.15a134.49,134.49,0,0,0,68.81-15.38,133.85,133.85,0,0,0,57.48-36.93,133.88,133.88,0,0,0,36.93-57.48,134.47,134.47,0,0,0,15.38-68.8l-6.38-47.48a178.47,178.47,0,0,0-45.93-78.81l-36.15-27.92A177.71,177.71,0,0,0,3689.44,97a134.47,134.47,0,0,0-68.8,15.38,133.88,133.88,0,0,0-57.48,36.93,133.85,133.85,0,0,0-36.93,57.48,134.49,134.49,0,0,0-15.38,68.81l6.38,47.47a178.47,178.47,0,0,0,45.93,78.81l36.14,27.93a177.85,177.85,0,0,0,90.14,24.38Z" transform="translate(167.03 194.26)"/><path class="cls-4" d="M3843.89,410.82a134.52,134.52,0,0,0,68.81-15.39,133.83,133.83,0,0,0,57.47-36.92A133.85,133.85,0,0,0,4007.1,301a134.49,134.49,0,0,0,15.38-68.81l-6.38-47.48a178.3,178.3,0,0,0-45.93-78.8L3934,78a177.82,177.82,0,0,0-90.14-24.38A134.49,134.49,0,0,0,3775.08,69a133.85,133.85,0,0,0-57.48,36.93,133.83,133.83,0,0,0-36.92,57.47,134.41,134.41,0,0,0-15.38,68.81l6.37,47.48a178.58,178.58,0,0,0,45.93,78.81l36.15,27.92a177.71,177.71,0,0,0,90.14,24.39Z" transform="translate(167.03 194.26)"/><path class="cls-4" d="M3959.44,324.15a134.49,134.49,0,0,0,68.81-15.38,133.85,133.85,0,0,0,57.48-36.93,133.88,133.88,0,0,0,36.93-57.48,134.47,134.47,0,0,0,15.38-68.8l-6.38-47.48a178.47,178.47,0,0,0-45.93-78.81L4049.58-8.65A177.71,177.71,0,0,0,3959.44-33a134.47,134.47,0,0,0-68.8,15.38,133.88,133.88,0,0,0-57.48,36.93,133.85,133.85,0,0,0-36.93,57.48,134.49,134.49,0,0,0-15.38,68.81l6.38,47.47a178.47,178.47,0,0,0,45.93,78.81l36.14,27.93a177.85,177.85,0,0,0,90.14,24.38Z" transform="translate(167.03 194.26)"/><path class="cls-4" d="M3482.78,447.48a134.51,134.51,0,0,0,68.81-15.38,133.76,133.76,0,0,0,57.47-36.93A133.76,133.76,0,0,0,3646,337.7a134.51,134.51,0,0,0,15.38-68.81L3655,221.41a178.39,178.39,0,0,0-45.93-78.81l-36.14-27.92a177.72,177.72,0,0,0-90.14-24.38A134.39,134.39,0,0,0,3414,105.68a133.92,133.92,0,0,0-57.48,36.92,133.92,133.92,0,0,0-36.92,57.48,134.5,134.5,0,0,0-15.39,68.81l6.38,47.48a178.49,178.49,0,0,0,45.93,78.8l36.15,27.93a177.8,177.8,0,0,0,90.14,24.38Z" transform="translate(167.03 194.26)"/></g></svg>